<?xml version="1.0" encoding="utf-8"?>
<!-- Generator: Adobe Illustrator 24.0.0, SVG Export Plug-In . SVG Version: 6.00 Build 0)  -->
<svg version="1.1" id="Capa_1" xmlns="http://www.w3.org/2000/svg" xmlns:xlink="http://www.w3.org/1999/xlink" x="0px" y="0px"
	 viewBox="0 0 490.7 490.7" style="enable-background:new 0 0 490.7 490.7;" xml:space="preserve">
<style type="text/css">
	.st0{fill:#FAFAFA;}
</style>
<path d="M245.3,0C109.8,0,0,109.8,0,245.3s109.8,245.3,245.3,245.3s245.3-109.8,245.3-245.3C490.5,109.9,380.8,0.2,245.3,0z"/>
<path class="st0" d="M317.9,221.9l-19.2,19.2V117.3c0-29.5-23.9-53.3-53.3-53.3S192,87.9,192,117.3v123.6l-19.2-19.2
	c-19.1-18.3-49.3-18.3-68.4,0c-18.9,18.9-18.9,49.5,0,68.4l118.3,118.3c12.5,12.5,32.8,12.5,45.2,0l118.3-118.3
	c18.9-18.9,18.9-49.5,0-68.4C367,203.6,336.9,203.6,317.9,221.9z"/>
</svg>
